<?xml version="1.0" encoding="UTF-8" standalone="no"?>
<svg
   xmlns:dc="http://purl.org/dc/elements/1.1/"
   xmlns:cc="http://creativecommons.org/ns#"
   xmlns:rdf="http://www.w3.org/1999/02/22-rdf-syntax-ns#"
   xmlns:svg="http://www.w3.org/2000/svg"
   xmlns="http://www.w3.org/2000/svg"
   width="1920"
   height="1080"
   viewBox="0 0 1920 1080"
   id="svg2"
   version="1.1">
  <defs
     id="defs4" />
  <metadata
     id="metadata7">
    <rdf:RDF>
      <cc:Work
         rdf:about="">
        <dc:format>image/svg+xml</dc:format>
        <dc:type
           rdf:resource="http://purl.org/dc/dcmitype/StillImage" />
        <dc:title></dc:title>
        <cc:license
           rdf:resource="http://creativecommons.org/licenses/by-nc-sa/3.0/" />
      </cc:Work>
      <cc:License
         rdf:about="http://creativecommons.org/licenses/by-nc-sa/3.0/">
        <cc:permits
           rdf:resource="http://creativecommons.org/ns#Reproduction" />
        <cc:permits
           rdf:resource="http://creativecommons.org/ns#Distribution" />
        <cc:requires
           rdf:resource="http://creativecommons.org/ns#Notice" />
        <cc:requires
           rdf:resource="http://creativecommons.org/ns#Attribution" />
        <cc:prohibits
           rdf:resource="http://creativecommons.org/ns#CommercialUse" />
        <cc:permits
           rdf:resource="http://creativecommons.org/ns#DerivativeWorks" />
        <cc:requires
           rdf:resource="http://creativecommons.org/ns#ShareAlike" />
      </cc:License>
    </rdf:RDF>
  </metadata>
  <path
     id="path3355"
     d=""
     style="fill:#000000" />
  <path
     id="path3353"
     d=""
     style="fill:#000000" />
  <path
     id="path3349"
     d=""
     style="fill:#000000" />
  <path
     id="path3347"
     d=""
     style="fill:#000000" />
  <text
     id="loading-text"
     y="936.4292"
     x="888.20001"
     style="font-style:normal;font-weight:normal;font-size:40px;line-height:125%;font-family:sans-serif;letter-spacing:0px;word-spacing:0px;fill:#000000;fill-opacity:1;stroke:none;stroke-width:1px;stroke-linecap:butt;stroke-linejoin:miter;stroke-opacity:1"
     xml:space="preserve"><tspan
       style="font-style:normal;font-variant:normal;font-weight:normal;font-stretch:normal;font-family:'Old Standard TT';-inkscape-font-specification:'Old Standard TT';fill:#ffffff"
       y="936.4292"
       x="888.20001"
       id="tspan3367">Loading</tspan></text>
  <g
     id="loader-bar">
    <rect
       style="color:#000000;clip-rule:nonzero;display:inline;overflow:visible;visibility:visible;opacity:1;isolation:auto;mix-blend-mode:normal;color-interpolation:sRGB;color-interpolation-filters:linearRGB;solid-color:#000000;solid-opacity:1;fill:#1c1c24;fill-opacity:1;fill-rule:nonzero;stroke:none;stroke-width:0.99999988;stroke-linecap:butt;stroke-linejoin:miter;stroke-miterlimit:4;stroke-dasharray:none;stroke-dashoffset:0;stroke-opacity:1;color-rendering:auto;image-rendering:auto;shape-rendering:auto;text-rendering:auto;enable-background:accumulate"
       id="loader-back"
       width="926"
       height="58"
       x="496.83029"
       y="971.08191" />
    <path
       style="color:#000000;clip-rule:nonzero;display:inline;overflow:visible;visibility:visible;opacity:1;isolation:auto;mix-blend-mode:normal;color-interpolation:sRGB;color-interpolation-filters:linearRGB;solid-color:#000000;solid-opacity:1;fill:#ff0000;fill-opacity:1;fill-rule:nonzero;stroke:none;stroke-width:0.99999988;stroke-linecap:butt;stroke-linejoin:miter;stroke-miterlimit:4;stroke-dasharray:none;stroke-dashoffset:0;stroke-opacity:1;color-rendering:auto;image-rendering:auto;shape-rendering:auto;text-rendering:auto;enable-background:accumulate"
       d="m 503.97078,977.0819 70,0 c 0,0 -8.22687,15.67917 -12.5064,23.4274 -12.38219,22.4181 12.5064,22.5726 12.5064,22.5726 l -70,0 z"
       id="loader-front" />
  </g>
  <g
     transform="matrix(1.0013373,0,0,1.0000877,-1.0808305,-0.0690648)"
     id="death">
    <path
       style="fill:#ffffff"
       d="m 954.81049,80.007812 c -3.29413,-0.04091 -6.58455,0.09664 -9.85547,0.423829 -10.00384,5.8709 -8.31195,21.136579 -20.41602,28.253909 -16.04973,25.70662 -30.60231,53.03305 -39.35156,82.12695 -2.3567,18.63129 -10.66691,41.59704 -2.12695,58.72461 -14.21111,12.88303 -24.78422,28.89048 -38.23243,42.19727 -7.31908,11.14526 -15.9478,22.11573 -18.97656,35.32812 -8.33349,35.24866 -15.56388,71.75498 -13.94336,108.0957 -4.17305,16.75084 -6.39636,35.64081 2.06836,51.63868 9.12697,10.13858 9.8565,24.18625 17.06446,35.35156 21.11128,68.71335 29.68925,141.75323 23.93554,213.55664 4.72352,10.17212 -11.17981,32.40655 1.83203,29.35156 3.006,-16.00101 7.61907,-31.82188 10.96875,-47.83008 9.49672,-47.55073 7.34247,-96.7625 3.57422,-144.84375 1.7446,-13.66621 -15.05979,-41.19747 9.47656,-33.70703 11.45046,0.38865 25.40764,-7.5483 24.84571,11.55469 13.13691,56.51397 -2.26286,114.37974 -10.73438,170.41601 -1.23051,6.94877 -12.06601,57.45972 -1.08398,32.97852 15.07154,-37.49754 20.57182,-77.71506 29.04883,-116.95898 7.00946,-28.5677 10.90982,-57.66123 10.32031,-87.07422 1.84659,-9.82974 -8.78824,-23.24042 2.03516,-28.99219 18.631,-20.17981 10.90063,23.22761 7.39648,35.71289 -2.06984,38.97556 -0.37866,78.15764 -0.96484,117.21484 3.0937,35.91757 3.54556,73.48048 17.20703,107.21485 2.23561,3.42287 1.76994,8.44358 7.18164,6.91406 -1.88296,-21.85357 -2.58052,-43.94394 0.64258,-65.69531 5.97895,-55.21189 34.1174,-104.35791 61.9941,-151.27344 13.8987,-29.07522 3.5162,6.22887 2.625,18.3457 -5.3362,44.48481 -6.9372,91.14312 8.2539,133.96875 4.8815,6.61823 4.7712,21.95879 14.5488,21.30078 -8.9343,-46.41746 -12.4484,-94.27441 -6.4824,-141.3164 6.2446,-65.65501 36.083,-125.08298 57.4961,-186.48828 5.1658,-18.84803 11.2429,-41.07189 1.3496,-59.18946 -3.9559,-18.90636 -1.2618,-39.50205 -6.5664,-58.60547 -2.5052,-15.20542 -12.6221,-25.53997 -27.084,-31.13085 -16.1062,-2.51905 -9.5104,-17.48524 -12.9531,-28.08789 -6.0476,-16.17116 -4.9025,-36.17053 -13.4004,-50.56446 -5.3509,-16.60033 -1.9817,-36.22355 -9.875,-52.76367 -4.7431,-10.95963 -8.9715,-24.37482 -17.8047,-32.11914 -17.7317,-14.666864 -40.95472,-23.742926 -64.01361,-24.029298 z m 9.89062,47.634768 c 8.09846,0.0643 16.13265,5.52856 22.04297,11.48437 24.22632,25.38506 27.01132,63.34924 32.73042,96.33399 7.5659,10.16728 -9.022,3.71841 -6.3633,0.55273 1.9522,-25.4044 -10.2441,4.42656 -20.8222,-3.66601 -13.51297,2.81686 -6.06743,-10.8496 -11.52929,-15.20313 -14.5116,-6.86803 -2.56421,17.54879 -16.43165,12.1582 -18.60874,9.44533 -9.69894,-12.1047 -22.94531,-11.95703 -7.02342,1.99626 3.0676,23.5559 -13.5625,15.12891 1.82898,-9.85664 -16.91848,-10.98809 -12.27734,-0.24023 -0.96125,17.22307 -3.41218,-8.00961 -2.28516,-13.56446 1.83778,-31.61248 10.78359,-67.87188 38.95899,-85.97656 3.98171,-3.63603 8.24232,-5.08445 12.48437,-5.05078 z M 928.55658,172 c -6.94515,0.23248 -5.41823,13.10298 2.4375,13.95898 4.66074,2.7494 10.72363,1.08749 15.82422,1.02149 5.323,-7.61028 -8.16968,-13.45064 -14.76172,-14.23438 -1.3442,-0.55447 -2.50784,-0.7793 -3.5,-0.74609 z m 68.04297,5.87109 c -1.19284,0.0276 -2.47832,0.37234 -3.8125,1.12305 -6.16582,0.61276 -23.0122,6.28151 -12.08399,12.05859 5.90902,2.49434 13.80733,2.55278 19.70704,-0.22656 6.3349,-4.0296 2.6307,-13.10396 -3.81055,-12.95508 z m -18.68359,60.26758 c 10.91464,-0.3421 9.31091,11.38908 8.61328,21.35938 -1.60192,12.51493 8.21224,8.743 8.00195,-1.46875 -4.78781,-22.03607 13.08721,-11.22751 22.30851,-3.46094 4.3978,3.65928 3.2057,25.08881 1.5,21.11719 -7.5209,0.8671 -12.9248,-15.30981 -17.2128,-1.35743 -5.95007,17.84214 -1.28046,3.67473 -8.42579,5.09571 -3.98038,8.92996 -2.10002,-9.51413 -9.16015,-6.77735 -9.07664,4.07901 -13.0443,13.27474 -16.47852,23.54493 -2.02166,-5.46634 3.64678,-21.94978 -3.97461,-19.98633 -2.20372,4.95316 -6.42728,26.85957 -6.19922,11.39062 -7.63002,-1.79363 -8.14445,23.64259 -7.57422,6.17578 0.98501,-11.33331 -9.4185,2.43565 -9.70703,6.46875 -1.89044,3.03628 -10.30863,2.65349 -11.0664,11.65235 -3.91925,13.0004 -2.63244,10.16257 -9.38477,7.95508 l -0.5293,0.85742 c -1.29595,5.02225 1.29162,27.27708 -2.86914,19.58984 -8.8715,-20.88666 1.38814,-43.72803 3.5,-65.16797 6.69088,-9.38732 -13.45423,-28.74963 4.75586,-27.66601 3.44767,2.51174 -0.42422,15.09233 2.05274,21.43164 8.35027,27.02773 13.23286,-1.99331 10.93945,-15.47461 -0.61991,-19.62717 25.8502,-15.28092 18.16602,3.77148 -1.57335,10.76654 12.76633,19.49521 11.08984,4.36328 2.53127,-6.985 -4.84816,-24.64198 6.16992,-22.48828 2.10926,-0.58196 3.92514,-0.87691 5.48438,-0.92578 z m 17.57421,60.22071 c 7.41863,0.57266 10.01103,19.09763 20.05853,14.93359 8.6403,-0.39809 18.7627,5.65584 14.4649,15.41406 1.1765,3.25353 6.1584,10.90172 3.6562,16.0293 -2.0548,7.24189 4.0107,11.77207 -8.0097,17.62109 0.2378,13.45823 -2.0082,35.11293 10.7421,28.79297 7.234,15.30481 6.5719,52.86849 7.9668,68.90625 0.3273,16.60237 -1.1786,51.34144 -11.0253,52.15234 l -7.295,-41.1582 c -2.9009,-12.85791 -5.3318,-27.76744 -7.5429,-42.56055 l -8.3438,-47.08007 c -10.62626,-0.96675 -15.60395,9.73131 -19.62886,18.05078 -7.89148,18.51076 -23.72695,31.88491 -30.68359,50.8457 -6.64154,15.24513 -15.35009,29.12324 -23.7168,43.32227 -5.84889,14.88735 -19.66687,25.2037 -35.96875,25.39843 -18.4938,2.57767 -40.40507,4.29867 -55.19922,-9.64257 9.73359,-0.86165 -2.98558,-15.64428 -10.58007,-24.40821 -15.22518,-18.97783 -8.58127,-45.47867 1.29101,-65.32226 4.01044,16.02003 14.4885,30.34834 13.67774,47.31836 0.81491,10.1675 7.17789,16.82085 13.92773,5.40625 21.61541,-20.65303 45.91178,-38.4882 68.94141,-57.48829 10.92738,-14.49999 23.70337,-27.90328 35.9375,-41.50585 9.03495,-8.28621 13.88739,-18.91195 16.89257,-30.57227 14.76727,-16.15968 12.19367,-27.83772 5.74219,-42.66602 1.78295,-1.38337 3.32149,-1.89315 4.69531,-1.7871 z"
       id="man" />
    <g
       id="blood"
       transform="matrix(1.7075045,0,0,1.3144832,-723.45458,-86.370926)">
      <path
         id="path3431"
         d="m 1028.8122,459.61256 c 0,0 -2.6477,6.33692 -0.037,5.99098 2.611,-0.34593 0.037,-5.99098 0.037,-5.99098 z"
         style="fill:#ff0000;fill-rule:evenodd;stroke:none;stroke-width:1px;stroke-linecap:butt;stroke-linejoin:miter;stroke-opacity:1" />
      <path
         id="path3433"
         d="m 1033.033,393.6114 c -4.0835,22.21013 1.0834,16.9907 0.017,25.38487 -0.5724,4.5055 -4.0124,8.68778 -3.4155,13.19009 0.263,1.98338 2.5455,3.26186 2.9667,5.21775 0.9391,4.3605 0.035,9.04927 -1.2393,13.32394 -0.4922,1.6516 -2.4175,4.57016 -2.4175,4.57016 0,0 9.6034,1.14682 6.1884,-53.79168 -2.9705,-47.78773 -1.4074,-11.66117 -2.0999,-7.89513 z"
         style="fill:#ff0000;fill-rule:evenodd;stroke:none;stroke-width:1px;stroke-linecap:butt;stroke-linejoin:miter;stroke-opacity:1" />
    </g>
  </g>
</svg>
