<?xml version="1.0" encoding="UTF-8" standalone="no"?>
<svg
   xmlns:dc="http://purl.org/dc/elements/1.1/"
   xmlns:cc="http://creativecommons.org/ns#"
   xmlns:rdf="http://www.w3.org/1999/02/22-rdf-syntax-ns#"
   xmlns:svg="http://www.w3.org/2000/svg"
   xmlns="http://www.w3.org/2000/svg"
   xmlns:sodipodi="http://sodipodi.sourceforge.net/DTD/sodipodi-0.dtd"
   xmlns:inkscape="http://www.inkscape.org/namespaces/inkscape"
   version="1.1"
   viewBox="0 0 1920 1080"
   id="svg4790"
   inkscape:version="0.91 r13725"
   sodipodi:docname="loading-screen-orig.svg">
  <sodipodi:namedview
     pagecolor="#000000"
     bordercolor="#666666"
     borderopacity="1"
     objecttolerance="10"
     gridtolerance="10"
     guidetolerance="10"
     inkscape:pageopacity="1"
     inkscape:pageshadow="2"
     inkscape:window-width="1920"
     inkscape:window-height="1028"
     id="namedview14"
     showgrid="false"
     inkscape:zoom="0.52296439"
     inkscape:cx="990.10656"
     inkscape:cy="537.57145"
     inkscape:window-x="1366"
     inkscape:window-y="27"
     inkscape:window-maximized="1"
     inkscape:current-layer="svg4790" />
  <metadata
     id="metadata16">
    <rdf:RDF>
      <cc:Work
         rdf:about="">
        <dc:format>image/svg+xml</dc:format>
        <dc:type
           rdf:resource="http://purl.org/dc/dcmitype/StillImage" />
        <dc:title></dc:title>
      </cc:Work>
    </rdf:RDF>
  </metadata>
  <defs
     id="defs14" />
  <text
     xml:space="preserve"
     style="letter-spacing:0px;font-size:70px;word-spacing:0px;font-family:sans-serif;line-height:125%;fill:#333333"
     x="1616.1422"
     y="731.8537"
     id="loading-text"><tspan
       style="font-size:70px;font-family:'Old Standard TT';fill:#333333"
       x="1616.1422"
       y="731.8537"
       id="tspan3367">Loading</tspan></text>
  <rect
     x="-1918.7"
     y="-774.39"
     width="1400"
     height="5"
     transform="scale(-1)"
     style="color-rendering:auto;color:#000000;isolation:auto;mix-blend-mode:normal;shape-rendering:auto;solid-color:#000000;image-rendering:auto;fill:#333"
     id="main-bar" />
  <rect
     x="-569.68"
     y="-774.39"
     width="50.952"
     height="5"
     transform="scale(-1)"
     style="color-rendering:auto;color:#000000;isolation:auto;mix-blend-mode:normal;shape-rendering:auto;solid-color:#000000;image-rendering:auto;fill:#f00"
     id="blood-bar" />
  <g
     transform="matrix(0.99829,0,0,0.99756912,-0.20664603,1.9541826)"
     id="bloody-hand">
    <path
       d="m 440.98,52.174 33.97,73.224 45.812,8.0845 16.415,56.629 -42.501,57.47 c 0.64077,36.215 5.3072,115.07 39.66,98.067 19.49,41.184 20.949,170.28 24.707,213.43 0.88184,44.675 -7.6629,159.36 -34.193,161.54 l -22.62,-127.49 c -7.8158,-34.599 -17.435,-92.021 -23.393,-131.83 l -25.88,-182.63 -16.59,-6.66 -52.64,50.17 -383.52,451.75 0,-302.7 300.17,-210.78 76.5,-51.55 48.88,-50.21 -1.88,-100.98 z"
       style="fill:#ffffff"
       id="hand" />
    <g
       transform="matrix(4.6796,0,0,3.8853,-4290.5,-1048.1)"
       id="blood">
      <path
         d="m 1028.8,459.61 c 0,0 -2.6477,6.3369 -0.037,5.991 2.611,-0.34593 0.037,-5.991 0.037,-5.991 z"
         style="fill:#ff0000;fill-rule:evenodd"
         id="drop" />
      <path
         d="m 1033.7,393.45 c -4.0835,22.21 0.4054,17.154 -0.661,25.548 -0.5724,4.5055 -4.0124,8.6878 -3.4155,13.19 0.263,1.9834 2.5455,3.2619 2.9667,5.2178 0.9391,4.3605 0.035,9.0493 -1.2393,13.324 -0.4922,1.6516 -2.4175,4.5702 -2.4175,4.5702 0,0 9.7778,1.0256 6.8664,-53.955 -2.4959,-47.134 -1.4074,-11.661 -2.0999,-7.8951 z"
         style="fill:#ff0000;fill-rule:evenodd"
         id="main-blood" />
    </g>
  </g>
</svg>
